<?xml version="1.0" encoding="UTF-8" standalone="no"?>
<!-- Created with Inkscape (http://www.inkscape.org/) -->

<svg
   xmlns:dc="http://purl.org/dc/elements/1.1/"
   xmlns:cc="http://creativecommons.org/ns#"
   xmlns:rdf="http://www.w3.org/1999/02/22-rdf-syntax-ns#"
   xmlns:svg="http://www.w3.org/2000/svg"
   xmlns="http://www.w3.org/2000/svg"
   xmlns:sodipodi="http://sodipodi.sourceforge.net/DTD/sodipodi-0.dtd"
   xmlns:inkscape="http://www.inkscape.org/namespaces/inkscape"
   width="96mm"
   height="96mm"
   viewBox="0 0 340.15748 340.15748"
   id="svg2"
   version="1.1"
   inkscape:version="0.92.3 (unknown)"
   sodipodi:docname="settings.svg"
   inkscape:export-filename="/home/david/david/firefox-webext/drop-feeds/branches/0.9.2/themes/legacy/img/settings.png"
   inkscape:export-xdpi="6.3499999"
   inkscape:export-ydpi="6.3499999">
  <defs
     id="defs4" />
  <sodipodi:namedview
     id="base"
     pagecolor="#ffffff"
     bordercolor="#666666"
     borderopacity="1.0"
     inkscape:pageopacity="0.0"
     inkscape:pageshadow="2"
     inkscape:zoom="2.3013238"
     inkscape:cx="181.41732"
     inkscape:cy="181.41732"
     inkscape:document-units="px"
     inkscape:current-layer="layer1"
     showgrid="false"
     inkscape:window-width="1920"
     inkscape:window-height="1026"
     inkscape:window-x="0"
     inkscape:window-y="0"
     inkscape:window-maximized="1" />
  <metadata
     id="metadata7">
    <rdf:RDF>
      <cc:Work
         rdf:about="">
        <dc:format>image/svg+xml</dc:format>
        <dc:type
           rdf:resource="http://purl.org/dc/dcmitype/StillImage" />
        <dc:title />
      </cc:Work>
    </rdf:RDF>
  </metadata>
  <g
     inkscape:label="Calque 1"
     inkscape:groupmode="layer"
     id="layer1"
     transform="translate(0,-712.20472)">
    <path
       style="fill:#000000"
       d="M 190.96289 0.58984375 C 186.33248 0.81291737 183.84279 4.0462644 179.79102 13.435547 C 177.98173 17.628267 175.04119 22.364014 173.25586 23.958984 C 164.6127 31.680514 144.6556 34.826497 131.61719 30.523438 C 127.95369 29.314378 123.03203 25.48649 119.33008 20.96875 C 110.18536 9.80883 108.7704 9.4317431 96.992188 15.001953 C 91.416967 17.638613 81.769317 23.006741 75.554688 26.931641 C 65.513897 33.272971 64.255047 34.664455 64.248047 39.421875 C 64.243437 42.366435 65.541303 48.407356 67.132812 52.847656 C 69.604922 59.744866 69.723726 62.053323 67.947266 68.695312 C 65.213026 78.918342 57.165507 90.400204 48.898438 95.871094 C 43.098238 99.709474 40.354164 100.29752 27.433594 100.47461 L 12.621094 100.67773 L 8.8457031 111.25977 C 6.7694331 117.0803 3.82919 127.96794 2.3125 135.45312 C -0.98770996 151.74034 -0.63446746 152.42889 14.476562 159.20898 C 20.173343 161.76505 26.774604 165.9479 29.146484 168.50586 C 37.730514 177.76336 39.335179 196.88143 32.505859 208.51953 C 30.868059 211.31054 25.925004 216.1885 21.521484 219.35938 C 11.755194 226.3918 10.358347 230.89014 14.810547 240.95508 C 20.076877 252.8605 35.524265 276.00977 38.203125 276.00977 C 39.534265 276.00977 44.961882 274.48459 50.263672 272.62109 C 55.565472 270.75769 62.217482 269.24 65.044922 269.25 C 77.052402 269.2887 95.559791 282.56108 100.04102 294.34766 C 100.97563 296.80586 101.22251 303.37481 100.59961 309.19141 C 98.980404 324.31121 100.27141 325.83216 119.77539 331.78516 C 128.83771 334.55116 138.159 337.14904 140.48828 337.55664 C 151.26937 339.44334 152.89756 338.43137 159.12109 325.98438 C 164.21074 315.80507 166.16785 313.57063 172.94531 310.20703 C 191.3648 301.06563 210.87933 304.10223 220.13086 317.54883 C 222.91681 321.59803 226.77474 325.41134 228.70312 326.02344 C 232.76617 327.31294 256.60054 316.47724 268.5 307.93164 C 277.21263 301.67474 278.11069 296.93431 272.62109 286.17383 C 268.18692 277.48213 268.36577 270.29299 273.27148 259.91602 C 281.22865 243.08438 292.86415 236.38527 311.18359 238.08789 C 319.91168 238.89908 323.12872 238.59705 324.53125 236.83203 C 326.87931 233.8771 334.63327 210.20016 337.11914 198.39844 C 339.41695 187.48951 337.47486 184.5343 324.11523 178.60938 C 316.90283 175.41071 314.80963 173.40933 311.4707 166.52539 C 306.76751 156.82875 305.19779 140.25663 308.13867 131.3457 C 309.33817 127.71118 313.17823 122.77309 317.66602 119.0957 C 321.80104 115.70736 325.62632 111.16978 326.16797 109.01172 C 327.33882 104.34667 314.54506 78.957044 305.73633 68.464844 L 300.07227 61.71875 L 288.18555 65.839844 C 277.38926 69.583614 275.63004 69.761607 268.99414 67.773438 C 259.05379 64.795228 248.8407 57.471522 243.12695 49.226562 C 238.79315 42.972902 238.39467 41.134712 238.57617 28.226562 L 238.77539 14.078125 L 232.86719 11.261719 C 227.07526 8.4997388 206.55507 2.9369731 194.55664 0.87695312 C 193.21472 0.64655875 192.03145 0.53836522 190.96289 0.58984375 z M 170.47461 52.677734 A 113.43594 113.43594 0 0 1 283.91016 166.11328 A 113.43594 113.43594 0 0 1 170.47461 279.55078 A 113.43594 113.43594 0 0 1 57.039062 166.11328 A 113.43594 113.43594 0 0 1 170.47461 52.677734 z "
       transform="translate(0,712.20472)"
       id="path4220" />
  </g>
</svg>
