<?xml version="1.0" encoding="UTF-8" standalone="no"?>
<!-- Created with Inkscape (http://www.inkscape.org/) -->

<svg
   xmlns:dc="http://purl.org/dc/elements/1.1/"
   xmlns:cc="http://creativecommons.org/ns#"
   xmlns:rdf="http://www.w3.org/1999/02/22-rdf-syntax-ns#"
   xmlns:svg="http://www.w3.org/2000/svg"
   xmlns="http://www.w3.org/2000/svg"
   xmlns:sodipodi="http://sodipodi.sourceforge.net/DTD/sodipodi-0.dtd"
   xmlns:inkscape="http://www.inkscape.org/namespaces/inkscape"
   width="96mm"
   height="96mm"
   viewBox="0 0 340.15748 340.15748"
   id="svg2"
   version="1.1"
   inkscape:version="0.92.3 (unknown)"
   sodipodi:docname="settings.svg"
   inkscape:export-filename="/home/david/david/firefox-webext/drop-feeds/branches/0.9.2/themes/legacy_dark/img/settings.png"
   inkscape:export-xdpi="6.3499999"
   inkscape:export-ydpi="6.3499999">
  <defs
     id="defs4" />
  <sodipodi:namedview
     id="base"
     pagecolor="#ffffff"
     bordercolor="#666666"
     borderopacity="1.0"
     inkscape:pageopacity="0.0"
     inkscape:pageshadow="2"
     inkscape:zoom="2.3757378"
     inkscape:cx="181.41732"
     inkscape:cy="181.41732"
     inkscape:document-units="px"
     inkscape:current-layer="layer1"
     showgrid="false"
     inkscape:window-width="1920"
     inkscape:window-height="1053"
     inkscape:window-x="1920"
     inkscape:window-y="0"
     inkscape:window-maximized="1"
     inkscape:pagecheckerboard="true" />
  <metadata
     id="metadata7">
    <rdf:RDF>
      <cc:Work
         rdf:about="">
        <dc:format>image/svg+xml</dc:format>
        <dc:type
           rdf:resource="http://purl.org/dc/dcmitype/StillImage" />
        <dc:title />
      </cc:Work>
    </rdf:RDF>
  </metadata>
  <g
     inkscape:label="Calque 1"
     inkscape:groupmode="layer"
     id="layer1"
     transform="translate(0,-712.20472)">
    <path
       style="fill:#ffffed;fill-opacity:1;stroke:none;stroke-width:3.01856732;stroke-miterlimit:4;stroke-dasharray:none;stroke-opacity:1"
       d="m 191.74921,713.48738 c -4.62902,0.22305 -7.11799,3.45541 -11.16854,12.84186 -1.80876,4.19143 -4.74841,8.92577 -6.53319,10.52028 -8.64055,7.71922 -28.59168,10.86423 -41.62617,6.5625 -3.66243,-1.2087 -8.5826,-5.03548 -12.28347,-9.55185 -9.14196,-11.15658 -10.55647,-11.53353 -22.331154,-5.96499 -5.573547,2.63588 -15.218339,8.00236 -21.431082,11.92609 -10.037781,6.33941 -11.296261,7.7305 -11.303276,12.48648 -0.0034,2.94368 1.292882,8.9828 2.883908,13.42175 2.471378,6.89513 2.590145,9.20293 0.814238,15.8429 -2.733452,10.21997 -10.778555,21.6984 -19.043118,27.16764 -5.798464,3.83723 -8.541732,4.42512 -21.458423,4.60213 l -14.808071,0.20294 -3.7742433,10.57888 c -2.0756543,5.81879 -5.0149964,16.70317 -6.5312376,24.18608 -3.29921855,16.28234 -2.94608782,16.97069 12.1604199,23.74875 5.695059,2.55529 12.294348,6.73692 14.665503,9.29408 8.581455,9.25475 10.18566,28.36707 3.358384,40.00166 -1.637317,2.79018 -6.578884,7.6667 -10.981084,10.83663 -9.763346,7.03029 -11.159789,11.52731 -6.708924,21.58921 5.264734,11.90184 20.707508,35.04417 23.385549,35.04417 1.330756,0 6.756748,-1.52469 12.056959,-3.38769 5.30021,-1.86282 11.950215,-3.38008 14.776819,-3.37007 12.003845,0.0385 30.505703,13.30708 34.985603,25.09019 0.9343,2.4574 1.18113,9.0244 0.55839,14.8393 -1.618713,15.1152 -0.32807,16.6357 19.17005,22.5869 9.05959,2.7652 18.37808,5.3623 20.70664,5.7698 10.77787,1.8861 12.40556,0.8744 18.62726,-11.5688 5.08812,-10.1763 7.04464,-12.4101 13.82004,-15.7726 18.41398,-9.1387 37.92267,-6.103 47.17141,7.3396 2.78513,4.0479 6.64189,7.8601 8.56971,8.472 4.0618,1.2891 27.88903,-9.5433 39.78493,-18.0863 8.71003,-6.2551 9.60779,-10.9941 4.11985,-21.75134 -4.43283,-8.68907 -4.25403,-15.87607 0.65021,-26.24991 7.95478,-16.82661 19.5868,-23.5237 37.90072,-21.82158 8.72548,0.81095 11.94158,0.50899 13.34364,-1.2555 2.34739,-2.95403 10.09904,-26.62387 12.58416,-38.42205 2.29712,-10.90568 0.35557,-13.85999 -13.00004,-19.78311 -7.21024,-3.19775 -9.30282,-5.19852 -12.64073,-12.08039 -4.70178,-9.69375 -6.27102,-26.26087 -3.33104,-35.16915 1.19916,-3.63343 5.03807,-8.57002 9.52451,-12.24632 4.13378,-3.38731 7.95793,-7.92354 8.49938,-10.08098 1.17051,-4.66361 -11.61939,-30.04564 -20.42549,-40.53467 l -5.66236,-6.74408 -11.88314,4.11985 c -10.79305,3.74267 -12.55176,3.92058 -19.18571,1.933 -9.93731,-2.9773 -20.14738,-10.29883 -25.8594,-18.54129 -4.33252,-6.2518 -4.73087,-8.08943 -4.54939,-20.99371 l 0.19916,-14.14419 -5.90642,-2.81557 c -5.79019,-2.76117 -26.3042,-8.32224 -38.29902,-10.38166 -1.34156,-0.23018 -2.52447,-0.33828 -3.59271,-0.28715 z m -20.48216,52.07225 A 113.40191,113.40191 0 0 1 284.6686,878.96119 113.40191,113.40191 0 0 1 171.26705,992.36465 113.40191,113.40191 0 0 1 57.865543,878.96119 113.40191,113.40191 0 0 1 171.26705,765.55963 Z"
       id="path4220-3"
       inkscape:connector-curvature="0"
       inkscape:export-filename="/home/david/david/firefox-webext/drop-feeds/branches/0.9.2/themes/legacy/img/path4220.png"
       inkscape:export-xdpi="6"
       inkscape:export-ydpi="6" />
    <path
       style="fill:#4f4545;fill-opacity:1;stroke:none;stroke-width:2.93224216;stroke-miterlimit:4;stroke-dasharray:none;stroke-opacity:1"
       d="m 191.12946,718.31463 c -4.49663,0.21666 -6.91441,3.35658 -10.84913,12.4746 -1.75703,4.07156 -4.61261,8.67051 -6.34636,10.21942 -8.39344,7.49845 -27.774,10.55354 -40.43573,6.37483 -3.55769,-1.17414 -8.33716,-4.89148 -11.93219,-9.27869 -8.88051,-10.83753 -10.25459,-11.2037 -21.692527,-5.79441 -5.414149,2.5605 -14.783126,7.77351 -20.81819,11.58503 -9.750716,6.15812 -10.973215,7.50942 -10.980012,12.1294 -0.0042,2.85948 1.255896,8.7259 2.80142,13.03791 2.400709,6.69794 2.516065,8.93975 0.790949,15.38981 -2.655275,9.9277 -10.470299,21.07788 -18.498506,26.3907 -5.632647,3.72751 -8.297455,4.29858 -20.844768,4.47053 l -14.384575,0.19714 -3.666312,10.27633 c -2.016289,5.65239 -4.8715838,16.2255 -6.3444678,23.4944 -3.204865,15.8167 -2.8618232,16.48537 11.8126598,23.06959 5.532196,2.48221 11.942756,6.54425 14.2461,9.02828 8.336043,8.99008 9.894366,27.55584 3.262342,38.8577 -1.590488,2.71039 -6.390749,7.44745 -10.667047,10.52672 -9.484138,6.82923 -10.840644,11.19765 -6.517071,20.97181 5.114186,11.56148 20.115312,34.04197 22.716778,34.04197 1.292701,0 6.563513,-1.4811 11.712145,-3.2908 5.148645,-1.80956 11.608468,-3.28341 14.354236,-3.27371 11.660555,0.0374 29.633301,12.92654 33.985076,24.37261 0.9076,2.3872 1.14735,8.7664 0.54242,14.415 -1.57241,14.683 -0.31869,16.16 18.62182,21.941 8.80053,2.6861 17.85252,5.2089 20.11448,5.6047 10.46965,1.8322 12.05079,0.8495 18.09456,-11.238 4.94262,-9.8852 6.84317,-12.0551 13.4248,-15.3215 17.88738,-8.8773 36.83816,-5.9284 45.82241,7.1297 2.70549,3.9322 6.45195,7.6354 8.32463,8.2298 3.94565,1.2522 27.09146,-9.2704 38.64716,-17.5692 8.46093,-6.0761 9.33303,-10.6795 4.00203,-21.12919 -4.30606,-8.44057 -4.13237,-15.42205 0.63162,-25.49921 7.72729,-16.3454 19.02665,-22.85097 36.81684,-21.19754 8.47594,0.78775 11.60007,0.49444 12.96203,-1.21959 2.28026,-2.86954 9.81022,-25.86247 12.22427,-37.32324 2.23144,-10.59382 0.3454,-13.46365 -12.62825,-19.21737 -7.00405,-3.10629 -9.03679,-5.04985 -12.27923,-11.73491 -4.56732,-9.41652 -6.09168,-25.50985 -3.23578,-34.16337 1.16486,-3.52953 4.89399,-8.32495 9.25212,-11.8961 4.01557,-3.29044 7.73034,-7.69695 8.25632,-9.79268 1.13704,-4.53025 -11.2871,-29.18641 -19.84137,-39.37547 l -5.50043,-6.55121 -11.5433,4.00202 c -10.48439,3.63565 -12.1928,3.80847 -18.63704,1.87774 -9.65312,-2.89217 -19.5712,-10.00431 -25.11988,-18.01105 -4.2086,-6.07302 -4.59555,-7.85809 -4.41927,-20.39333 l 0.19345,-13.73971 -5.73749,-2.73504 c -5.62461,-2.68221 -25.55196,-8.08423 -37.20377,-10.08476 -1.30317,-0.22361 -2.45225,-0.3286 -3.48995,-0.27894 z m -19.89639,50.58308 A 110.15884,110.15884 0 0 1 281.39155,879.05619 110.15884,110.15884 0 0 1 171.23307,989.21654 110.15884,110.15884 0 0 1 61.074625,879.05619 110.15884,110.15884 0 0 1 171.23307,768.89771 Z"
       id="path4220-36"
       inkscape:connector-curvature="0"
       inkscape:export-filename="/home/david/david/firefox-webext/drop-feeds/branches/0.9.2/themes/legacy/img/path4220.png"
       inkscape:export-xdpi="6"
       inkscape:export-ydpi="6" />
  </g>
</svg>
