<?xml version="1.0" encoding="UTF-8" standalone="no"?>
<!-- Created with Inkscape (http://www.inkscape.org/) -->

<svg
   xmlns:dc="http://purl.org/dc/elements/1.1/"
   xmlns:cc="http://creativecommons.org/ns#"
   xmlns:rdf="http://www.w3.org/1999/02/22-rdf-syntax-ns#"
   xmlns:svg="http://www.w3.org/2000/svg"
   xmlns="http://www.w3.org/2000/svg"
   xmlns:sodipodi="http://sodipodi.sourceforge.net/DTD/sodipodi-0.dtd"
   xmlns:inkscape="http://www.inkscape.org/namespaces/inkscape"
   id="svg2"
   version="1.1"
   inkscape:version="0.91 r13725"
   width="96"
   height="96"
   viewBox="0 0 96 96"
   sodipodi:docname="updating.svg"
   inkscape:export-filename="/home/david/david/firefox-webext/drop-feeds/drop-feeds_0,7/resources/resources-src/themes/legacy/img/updating-animation/07.png"
   inkscape:export-xdpi="90"
   inkscape:export-ydpi="90">
  <metadata
     id="metadata8">
    <rdf:RDF>
      <cc:Work
         rdf:about="">
        <dc:format>image/svg+xml</dc:format>
        <dc:type
           rdf:resource="http://purl.org/dc/dcmitype/StillImage" />
        <dc:title />
      </cc:Work>
    </rdf:RDF>
  </metadata>
  <defs
     id="defs6" />
  <sodipodi:namedview
     pagecolor="#ffffff"
     bordercolor="#666666"
     borderopacity="1"
     objecttolerance="10"
     gridtolerance="10"
     guidetolerance="10"
     inkscape:pageopacity="0"
     inkscape:pageshadow="2"
     inkscape:window-width="1920"
     inkscape:window-height="1024"
     id="namedview4"
     showgrid="false"
     showguides="true"
     inkscape:guide-bbox="true"
     inkscape:zoom="5.9"
     inkscape:cx="18.355932"
     inkscape:cy="54.347258"
     inkscape:window-x="0"
     inkscape:window-y="0"
     inkscape:window-maximized="1"
     inkscape:current-layer="svg2">
    <sodipodi:guide
       position="0,47.5"
       orientation="0,1"
       id="guide4556"
       inkscape:label=""
       inkscape:color="rgb(0,0,255)" />
    <sodipodi:guide
       position="47.5,0"
       orientation="1,0"
       id="guide4558"
       inkscape:label=""
       inkscape:color="rgb(0,0,255)" />
    <sodipodi:guide
       position="47.82,47.58"
       orientation="-0.70710678,0.70710678"
       id="guide4564"
       inkscape:label=""
       inkscape:color="rgb(0,0,255)" />
    <sodipodi:guide
       position="47.5,47.5"
       orientation="0.70710678,0.70710678"
       id="guide4566"
       inkscape:label=""
       inkscape:color="rgb(0,0,255)" />
  </sodipodi:namedview>
  <path
     style="fill:#b2b2b2;fill-opacity:1;fill-rule:evenodd;stroke:none;stroke-width:1px;stroke-linecap:butt;stroke-linejoin:miter;stroke-opacity:1"
     d="m 16.793542,17.53445 0,-5.749041 11.498081,0 0,5.749041 5.749041,0 0,11.498081 -5.749041,0 0,5.749041 -11.498081,0 0,-5.749041 -5.749041,0 0,-11.498081 5.749041,0 0,0 0,0"
     id="path4170"
     inkscape:connector-curvature="0"
     inkscape:export-filename="/home/david/david/firefox-webext/drop-feeds/drop-feeds_0,7/resources/resources-src/themes/legacy/img/updating-animation/03.png"
     inkscape:export-xdpi="90"
     inkscape:export-ydpi="90" />
  <path
     style="fill:#1a1a1a;fill-opacity:1;fill-rule:evenodd;stroke:none;stroke-width:1px;stroke-linecap:butt;stroke-linejoin:miter;stroke-opacity:1"
     d="m 6.1360644,42.554222 0,-5.749041 11.4980816,0 0,5.749041 5.74904,0 0,11.498078 -5.74904,0 0,5.74904 -11.4980816,0 0,-5.74904 -5.74904036,0 0,-11.498078 5.74904036,0 0,0 0,0"
     id="path4170-7"
     inkscape:connector-curvature="0" />
  <path
     style="fill:#1a1a1a;fill-opacity:1;fill-rule:evenodd;stroke:none;stroke-width:1px;stroke-linecap:butt;stroke-linejoin:miter;stroke-opacity:1"
     d="m 17.930618,66.93608 0,-5.749041 11.498082,0 0,5.749041 5.749041,0 0,11.498081 -5.749041,0 0,5.749041 -11.498082,0 0,-5.749041 -5.749039,0 0,-11.498081 5.749039,0 0,0 0,0"
     id="path4170-7-5"
     inkscape:connector-curvature="0" />
  <path
     style="fill:#333333;fill-opacity:1;fill-rule:evenodd;stroke:none;stroke-width:1px;stroke-linecap:butt;stroke-linejoin:miter;stroke-opacity:1"
     d="m 42.067995,78.228321 0,-5.74904 11.498081,0 0,5.74904 5.749041,0 0,11.498081 -5.749041,0 0,5.749041 -11.498081,0 0,-5.749041 -5.74904,0 0,-11.498081 5.74904,0 0,0 0,0"
     id="path4170-7-5-3"
     inkscape:connector-curvature="0" />
  <path
     style="fill:#4c4c4c;fill-opacity:1;fill-rule:evenodd;stroke:none;stroke-width:1px;stroke-linecap:butt;stroke-linejoin:miter;stroke-opacity:1"
     d="m 66.763606,67.122698 0,-5.749041 11.498087,0 0,5.749041 5.749041,0 0,11.498082 -5.749041,0 0,5.74904 -11.498087,0 0,-5.74904 -5.749035,0 0,-11.498082 5.749035,0 0,0 0,0"
     id="path4170-7-5-3-5"
     inkscape:connector-curvature="0" />
  <path
     style="fill:#666666;fill-opacity:1;fill-rule:evenodd;stroke:none;stroke-width:1px;stroke-linecap:butt;stroke-linejoin:miter;stroke-opacity:1"
     d="m 78.287371,42.525698 0,-5.749041 11.498088,0 0,5.749041 5.749039,0 0,11.498082 -5.749039,0 0,5.749041 -11.498088,0 0,-5.749041 -5.749034,0 0,-11.498082 5.749034,0 0,0 0,0"
     id="path4170-7-5-3-5-6"
     inkscape:connector-curvature="0" />
  <path
     style="fill:#808080;fill-opacity:1;fill-rule:evenodd;stroke:none;stroke-width:1px;stroke-linecap:butt;stroke-linejoin:miter;stroke-opacity:1"
     d="m 65.108335,19.6258 0,-5.74904 11.498088,0 0,5.74904 5.74904,0 0,11.498084 -5.74904,0 0,5.74904 -11.498088,0 0,-5.74904 -5.749034,0 0,-11.498084 5.749034,0 0,0 0,0"
     id="path4170-7-5-3-5-6-2"
     inkscape:connector-curvature="0" />
  <path
     style="fill:#999999;fill-opacity:1;fill-rule:evenodd;stroke:none;stroke-width:1px;stroke-linecap:butt;stroke-linejoin:miter;stroke-opacity:1"
     d="m 41.913403,6.3891272 0,-5.7490397 11.498081,0 0,5.7490397 5.749039,0 0,11.4980838 -5.749039,0 0,5.749041 -11.498081,0 0,-5.749041 -5.749035,0 0,-11.4980838 5.749035,0 0,0 0,0"
     id="path4170-7-5-3-5-6-2-9"
     inkscape:connector-curvature="0" />
</svg>
