<?xml version="1.0" encoding="UTF-8" standalone="no"?>
<!-- Created with Inkscape (http://www.inkscape.org/) -->

<svg
   xmlns:dc="http://purl.org/dc/elements/1.1/"
   xmlns:cc="http://creativecommons.org/ns#"
   xmlns:rdf="http://www.w3.org/1999/02/22-rdf-syntax-ns#"
   xmlns:svg="http://www.w3.org/2000/svg"
   xmlns="http://www.w3.org/2000/svg"
   xmlns:xlink="http://www.w3.org/1999/xlink"
   xmlns:sodipodi="http://sodipodi.sourceforge.net/DTD/sodipodi-0.dtd"
   xmlns:inkscape="http://www.inkscape.org/namespaces/inkscape"
   width="96"
   height="96"
   viewBox="0 0 96.000001 96.000002"
   id="svg2"
   version="1.1"
   inkscape:version="0.92.3 (unknown)"
   sodipodi:docname="itemMarkAllAsUnreadButton.svg"
   inkscape:export-filename="/home/david/david/firefox-webext/drop-feeds/branches/0.9.1/themes/legacy_dark/img/itemMarkAllAsUnreadButton.png"
   inkscape:export-xdpi="90"
   inkscape:export-ydpi="90">
  <defs
     id="defs4">
    <inkscape:path-effect
       effect="spiro"
       id="path-effect4173"
       is_visible="true" />
    <inkscape:path-effect
       effect="spiro"
       id="path-effect4179"
       is_visible="true" />
    <inkscape:path-effect
       effect="spiro"
       id="path-effect4169"
       is_visible="true" />
    <inkscape:path-effect
       effect="spiro"
       id="path-effect4165"
       is_visible="true" />
    <inkscape:path-effect
       effect="spiro"
       id="path-effect4142"
       is_visible="true" />
    <inkscape:path-effect
       effect="spiro"
       id="path-effect4138"
       is_visible="true" />
    <inkscape:path-effect
       effect="spiro"
       id="path-effect4458-3"
       is_visible="true" />
    <inkscape:path-effect
       effect="spiro"
       id="path-effect4458-3-3"
       is_visible="true" />
    <inkscape:path-effect
       effect="spiro"
       id="path-effect4458-3-36"
       is_visible="true" />
    <inkscape:path-effect
       effect="spiro"
       id="path-effect4458-3-3-7"
       is_visible="true" />
    <inkscape:path-effect
       effect="spiro"
       id="path-effect4173-5"
       is_visible="true" />
    <inkscape:path-effect
       effect="spiro"
       id="path-effect4458-3-36-1"
       is_visible="true" />
    <inkscape:path-effect
       effect="spiro"
       id="path-effect4458-3-3-7-2"
       is_visible="true" />
    <inkscape:path-effect
       effect="spiro"
       id="path-effect4173-5-7"
       is_visible="true" />
    <linearGradient
       inkscape:collect="always"
       xlink:href="#linearGradient4186"
       id="linearGradient4182"
       x1="15.175024"
       y1="1004.2409"
       x2="80.825134"
       y2="1004.2409"
       gradientUnits="userSpaceOnUse" />
    <linearGradient
       inkscape:collect="always"
       id="linearGradient4186">
      <stop
         style="stop-color:#4f4545;stop-opacity:1;"
         offset="0"
         id="stop4188" />
      <stop
         style="stop-color:#cac4c9;stop-opacity:1"
         offset="1"
         id="stop4190" />
    </linearGradient>
    <inkscape:path-effect
       effect="spiro"
       id="path-effect4142-3"
       is_visible="true" />
    <filter
       inkscape:collect="always"
       style="color-interpolation-filters:sRGB"
       id="filter4527-6"
       x="-0.014774852"
       width="1.0295497"
       y="-0.0097993575"
       height="1.0195987">
      <feGaussianBlur
         inkscape:collect="always"
         stdDeviation="0.39255456"
         id="feGaussianBlur4529-7" />
    </filter>
    <linearGradient
       inkscape:collect="always"
       xlink:href="#linearGradient4186"
       id="linearGradient4192"
       x1="56.258976"
       y1="965.65637"
       x2="80.816086"
       y2="965.65637"
       gradientUnits="userSpaceOnUse" />
    <inkscape:path-effect
       effect="spiro"
       id="path-effect4169-6"
       is_visible="true" />
    <filter
       inkscape:collect="always"
       style="color-interpolation-filters:sRGB"
       id="filter4539-2"
       x="-0.021458801"
       width="1.0429176"
       y="-0.027303275"
       height="1.0546066">
      <feGaussianBlur
         inkscape:collect="always"
         stdDeviation="0.21053362"
         id="feGaussianBlur4541-9" />
    </filter>
  </defs>
  <sodipodi:namedview
     id="base"
     pagecolor="#ffffff"
     bordercolor="#666666"
     borderopacity="1.0"
     inkscape:pageopacity="0.0"
     inkscape:pageshadow="2"
     inkscape:zoom="8.6979167"
     inkscape:cx="48"
     inkscape:cy="48"
     inkscape:document-units="px"
     inkscape:current-layer="layer1"
     showgrid="false"
     units="px"
     inkscape:window-width="1920"
     inkscape:window-height="1026"
     inkscape:window-x="0"
     inkscape:window-y="0"
     inkscape:window-maximized="1" />
  <metadata
     id="metadata7">
    <rdf:RDF>
      <cc:Work
         rdf:about="">
        <dc:format>image/svg+xml</dc:format>
        <dc:type
           rdf:resource="http://purl.org/dc/dcmitype/StillImage" />
        <dc:title />
      </cc:Work>
    </rdf:RDF>
  </metadata>
  <g
     inkscape:label="Calque 1"
     inkscape:groupmode="layer"
     id="layer1"
     transform="translate(0,-956.36216)">
    <path
       style="fill:url(#linearGradient4182);fill-opacity:1;fill-rule:nonzero;stroke:#000000;stroke-width:3.79669499;stroke-linecap:butt;stroke-linejoin:miter;stroke-miterlimit:4;stroke-dasharray:none;stroke-opacity:1;filter:url(#filter4527-6)"
       d="m 16.117155,956.41216 39.468815,-0.24227 23.9246,24.72592 0.37243,71.41619 H 16.117155 Z"
       id="path4140-5"
       inkscape:path-effect="#path-effect4142-3"
       inkscape:original-d="m 16.117155,956.41216 39.468815,-0.24227 23.9246,24.72592 0.37243,71.41619 -63.765845,0 z"
       inkscape:connector-curvature="0"
       sodipodi:nodetypes="cccccc"
       transform="matrix(1.2017101,0,0,0.92365298,-13.174813,78.598892)" />
    <path
       style="fill:none;fill-rule:evenodd;stroke:#0000fb;stroke-width:4;stroke-linecap:butt;stroke-linejoin:miter;stroke-miterlimit:4;stroke-dasharray:none;stroke-opacity:1"
       d="m 38.456985,1007.3967 h 8.263947 c 0.376073,0 0.75206,-0.01 1.127798,-0.026 0.375738,-0.016 0.754502,-0.033 1.126007,0.026 0.513727,0.081 0.993769,0.3072 1.502536,0.4149 0.614545,0.1301 1.251303,0.083 1.876944,0.027 0.625641,-0.056 1.258333,-0.1215 1.879395,-0.027 1.029968,0.1562 1.967026,0.7418 3.005072,0.8296 0.630987,0.053 1.260405,-0.081 1.888549,-0.1612 0.628144,-0.08 1.291504,-0.1013 1.867791,0.1612 0.260452,0.1186 0.493187,0.2911 0.751267,0.4148 0.398979,0.1912 0.847131,0.2605 1.289507,0.2679 0.442377,0.01 0.883483,-0.043 1.322742,-0.096 0.878518,-0.1059 1.761748,-0.1715 2.646626,-0.1715 h 4.507608 c 0.129672,0 0.258456,0.018 0.38484,0.047 0.06319,0.014 0.127393,0.028 0.192182,0.026 0.03239,-0 0.06481,-0.01 0.095,-0.019 0.03019,-0.012 0.05814,-0.03 0.07924,-0.055 0.02338,-0.027 0.03772,-0.062 0.04426,-0.097 0.0065,-0.035 0.0056,-0.072 7.21e-4,-0.1073 -0.0097,-0.071 -0.03444,-0.1395 -0.04498,-0.2106 -0.02204,-0.1485 0.02107,-0.3036 0.107849,-0.4262 0.08678,-0.1225 0.215012,-0.2131 0.356026,-0.2647 0.141014,-0.052 0.294304,-0.065 0.44381,-0.051 0.149507,0.014 0.295548,0.055 0.435104,0.1106 0.279112,0.1109 0.532131,0.2774 0.800066,0.4131 0.267934,0.1356 0.56283,0.2423 0.862216,0.2186 0.293977,-0.023 0.57501,-0.1785 0.751268,-0.4149"
       id="path4171"
       inkscape:path-effect="#path-effect4173"
       inkscape:original-d="m 38.456985,1007.3967 c 2.754649,0 5.509299,0 8.263947,0 0.751269,0 1.517125,-0.082 2.253805,0 0.549088,0.06 0.953448,0.3543 1.502536,0.4149 1.227797,0.1356 2.54161,-0.1677 3.756339,0 1.086487,0.1499 1.918586,0.6796 3.005072,0.8296 0.639489,0.088 3.325062,-0.1191 3.75634,0 0.316763,0.087 0.434506,0.3274 0.751267,0.4148 0.221741,0.061 4.484913,0 5.258875,0 1.502536,0 3.005072,0 4.507608,0 0.250423,0 0.574192,0.098 0.751269,0 0.177076,-0.098 -0.177077,-0.317 0,-0.4148 0.180779,-0.1 2.824292,0.1 3.005071,0 1.001691,-0.5532 -1.252112,-0.4149 0.751268,-0.4149"
       inkscape:connector-curvature="0" />
    <path
       style="fill:none;fill-rule:evenodd;stroke:#0000fb;stroke-width:4;stroke-linecap:butt;stroke-linejoin:miter;stroke-miterlimit:4;stroke-dasharray:none;stroke-opacity:1"
       d="m 38.456985,1034.6974 h 8.263947 c 0.376073,0 0.75206,-0.01 1.127798,-0.026 0.375738,-0.016 0.754502,-0.033 1.126007,0.026 0.513727,0.081 0.993769,0.3072 1.502536,0.4149 0.614545,0.1301 1.251303,0.083 1.876944,0.027 0.625641,-0.056 1.258333,-0.1215 1.879395,-0.027 1.029968,0.1562 1.967026,0.7418 3.005072,0.8296 0.630987,0.053 1.260405,-0.081 1.888549,-0.1612 0.628144,-0.08 1.291504,-0.1013 1.867791,0.1612 0.260452,0.1186 0.493187,0.2911 0.751267,0.4148 0.398979,0.1912 0.847131,0.2605 1.289507,0.2679 0.442377,0.01 0.883483,-0.043 1.322742,-0.096 0.878518,-0.1059 1.761748,-0.1715 2.646626,-0.1715 h 4.507608 c 0.129672,0 0.258456,0.018 0.38484,0.047 0.06319,0.014 0.127393,0.028 0.192182,0.026 0.03239,-0 0.06481,-0.01 0.095,-0.019 0.03019,-0.012 0.05814,-0.03 0.07924,-0.055 0.02338,-0.027 0.03772,-0.062 0.04426,-0.097 0.0065,-0.035 0.0056,-0.072 7.21e-4,-0.1073 -0.0097,-0.071 -0.03444,-0.1395 -0.04498,-0.2106 -0.02204,-0.1485 0.02107,-0.3036 0.107849,-0.4262 0.08678,-0.1225 0.215012,-0.2131 0.356026,-0.2647 0.141014,-0.052 0.294304,-0.065 0.44381,-0.051 0.149507,0.014 0.295548,0.055 0.435104,0.1106 0.279112,0.1109 0.532131,0.2774 0.800066,0.4131 0.267934,0.1356 0.56283,0.2423 0.862216,0.2186 0.293977,-0.023 0.57501,-0.1785 0.751268,-0.4149"
       id="path4171-9"
       inkscape:path-effect="#path-effect4173-5"
       inkscape:original-d="m 38.456985,1034.6974 c 2.754649,0 5.509299,0 8.263947,0 0.751269,0 1.517125,-0.082 2.253805,0 0.549088,0.06 0.953448,0.3543 1.502536,0.4149 1.227797,0.1356 2.54161,-0.1677 3.756339,0 1.086487,0.1499 1.918586,0.6796 3.005072,0.8296 0.639489,0.088 3.325062,-0.1191 3.75634,0 0.316763,0.087 0.434506,0.3274 0.751267,0.4148 0.221741,0.061 4.484913,0 5.258875,0 1.502536,0 3.005072,0 4.507608,0 0.250423,0 0.574192,0.098 0.751269,0 0.177076,-0.098 -0.177077,-0.317 0,-0.4148 0.180779,-0.1 2.824292,0.1 3.005071,0 1.001691,-0.5532 -1.252112,-0.4149 0.751268,-0.4149"
       inkscape:connector-curvature="0" />
    <g
       id="g4167-5-9"
       transform="matrix(1.1079122,0,0,1.1079121,-7.9635399,-129.37707)">
      <rect
         style="opacity:1;fill:#ffffff;fill-opacity:1;fill-rule:nonzero;stroke:#002020;stroke-width:2.53526616;stroke-linecap:round;stroke-linejoin:miter;stroke-miterlimit:4;stroke-dasharray:none;stroke-dashoffset:0;stroke-opacity:1"
         id="rect4149"
         width="13.268336"
         height="13.268336"
         x="21.826086"
         y="995.62555" />
    </g>
    <path
       style="fill:none;fill-rule:evenodd;stroke:#0000fb;stroke-width:4;stroke-linecap:butt;stroke-linejoin:miter;stroke-miterlimit:4;stroke-dasharray:none;stroke-opacity:1"
       d="m 38.456985,980.09601 h 8.263947 c 0.376073,0 0.75206,-0.01 1.127798,-0.0256 0.375738,-0.0159 0.754502,-0.0328 1.126007,0.0256 0.513727,0.0808 0.993769,0.30719 1.502536,0.4149 0.614545,0.1301 1.251303,0.0835 1.876944,0.0272 0.625641,-0.0563 1.258333,-0.12146 1.879395,-0.0272 1.029968,0.15624 1.967026,0.74182 3.005072,0.8296 0.630987,0.0534 1.260405,-0.081 1.888549,-0.16118 0.628144,-0.0802 1.291504,-0.10128 1.867791,0.16118 0.260452,0.11862 0.493187,0.2911 0.751267,0.4148 0.398979,0.19123 0.847131,0.26046 1.289507,0.26789 0.442377,0.007 0.883483,-0.0435 1.322742,-0.0964 0.878518,-0.1059 1.761748,-0.17149 2.646626,-0.17149 h 4.507608 c 0.129672,0 0.258456,0.0183 0.38484,0.0473 0.06319,0.0145 0.127393,0.0284 0.192182,0.026 0.03239,-0.001 0.06481,-0.007 0.095,-0.0186 0.03019,-0.0118 0.05814,-0.0301 0.07924,-0.0547 0.02338,-0.0273 0.03772,-0.0616 0.04426,-0.0969 0.0065,-0.0353 0.0056,-0.0717 7.21e-4,-0.10729 -0.0097,-0.0712 -0.03444,-0.13959 -0.04498,-0.21064 -0.02204,-0.14854 0.02107,-0.30363 0.107849,-0.42618 0.08678,-0.12255 0.215012,-0.21313 0.356026,-0.26473 0.141014,-0.0516 0.294304,-0.0654 0.44381,-0.0514 0.149507,0.014 0.295548,0.0552 0.435104,0.11067 0.279112,0.11086 0.532131,0.2774 0.800066,0.41307 0.267934,0.13566 0.56283,0.24231 0.862216,0.21861 0.293977,-0.0233 0.57501,-0.17847 0.751268,-0.4149"
       id="path4171-9-0"
       inkscape:path-effect="#path-effect4173-5-7"
       inkscape:original-d="m 38.456985,980.09601 c 2.754649,0 5.509299,0 8.263947,0 0.751269,0 1.517125,-0.082 2.253805,0 0.549088,0.06 0.953448,0.3543 1.502536,0.4149 1.227797,0.1356 2.54161,-0.1677 3.756339,0 1.086487,0.1499 1.918586,0.6796 3.005072,0.8296 0.639489,0.088 3.325062,-0.1191 3.75634,0 0.316763,0.087 0.434506,0.3274 0.751267,0.4148 0.221741,0.061 4.484913,0 5.258875,0 1.502536,0 3.005072,0 4.507608,0 0.250423,0 0.574192,0.098 0.751269,0 0.177076,-0.098 -0.177077,-0.317 0,-0.4148 0.180779,-0.1 2.824292,0.1 3.005071,0 1.001691,-0.5532 -1.252112,-0.4149 0.751268,-0.4149"
       inkscape:connector-curvature="0" />
    <g
       id="g4167-5-9-3"
       transform="matrix(1.1079122,0,0,1.1079121,-7.9635399,-102.07638)">
      <rect
         style="opacity:1;fill:#ffffff;fill-opacity:1;fill-rule:nonzero;stroke:#002020;stroke-width:2.53526616;stroke-linecap:round;stroke-linejoin:miter;stroke-miterlimit:4;stroke-dasharray:none;stroke-dashoffset:0;stroke-opacity:1"
         id="rect4149-6"
         width="13.268336"
         height="13.268336"
         x="21.826086"
         y="995.62555" />
    </g>
    <g
       id="g4167-5-9-3-7"
       transform="matrix(1.1079122,0,0,1.1079121,-7.9635399,-74.775677)">
      <rect
         style="opacity:1;fill:#ffffff;fill-opacity:1;fill-rule:nonzero;stroke:#002020;stroke-width:2.53526616;stroke-linecap:round;stroke-linejoin:miter;stroke-miterlimit:4;stroke-dasharray:none;stroke-dashoffset:0;stroke-opacity:1"
         id="rect4149-6-5"
         width="13.268336"
         height="13.268336"
         x="21.826086"
         y="995.62555" />
    </g>
    <path
       style="fill:url(#linearGradient4192);fill-opacity:1;fill-rule:evenodd;stroke:#000000;stroke-width:4.05022001;stroke-linecap:butt;stroke-linejoin:miter;stroke-miterlimit:4;stroke-dasharray:none;stroke-opacity:1;filter:url(#filter4539-2)"
       d="m 56.952668,956.40328 -0.18841,18.50581 23.546548,4.2e-4 z"
       id="path4167-1"
       inkscape:path-effect="#path-effect4169-6"
       inkscape:original-d="m 56.952668,956.40328 -0.18841,18.50581 23.546548,4.2e-4 z"
       inkscape:connector-curvature="0"
       sodipodi:nodetypes="cccc"
       transform="matrix(1.3215611,0,0,1.3106781,-22.914415,-291.87089)" />
  </g>
</svg>
